<?xml version="1.0" encoding="UTF-8"?>
<svg width="100px" height="23px" viewBox="0 0 100 23" version="1.1" xmlns="http://www.w3.org/2000/svg" xmlns:xlink="http://www.w3.org/1999/xlink">
    <!-- Generator: Sketch 50.2 (55047) - http://www.bohemiancoding.com/sketch -->
    <title>BOSCO</title>
    <desc>Created with Sketch.</desc>
    <defs></defs>
    <g id="Page-1" stroke="none" stroke-width="1" fill="none" fill-rule="evenodd">
        <g id="INDEX" transform="translate(-178.000000, -28.000000)" fill="#4B5C83">
            <g id="NAVBAR" transform="translate(-13.000000, -12.000000)">
                <path d="M198.92,59.69 C199.750004,59.69 200.464997,59.5950009 201.065,59.405 C201.665003,59.2149991 202.157498,58.9475017 202.5425,58.6025 C202.927502,58.2574983 203.209999,57.8475024 203.39,57.3725 C203.570001,56.8974976 203.66,56.3750029 203.66,55.805 C203.66,54.6949944 203.265004,53.8175032 202.475,53.1725 C201.684996,52.5274968 200.500008,52.205 198.92,52.205 L194.27,52.205 L194.27,59.69 L198.92,59.69 Z M194.27,42.8 L194.27,50.135 L198.11,50.135 C198.930004,50.135 199.642497,50.0450009 200.2475,49.865 C200.852503,49.6849991 201.352498,49.4350016 201.7475,49.115 C202.142502,48.7949984 202.434999,48.4075023 202.625,47.9525 C202.815001,47.4974977 202.91,47.0000027 202.91,46.46 C202.91,45.1899937 202.530004,44.2625029 201.77,43.6775 C201.009996,43.0924971 199.830008,42.8 198.23,42.8 L194.27,42.8 Z M198.23,40.505 C199.550007,40.505 200.687495,40.6349987 201.6425,40.895 C202.597505,41.1550013 203.382497,41.5249976 203.9975,42.005 C204.612503,42.4850024 205.064999,43.0724965 205.355,43.7675 C205.645001,44.4625035 205.79,45.2449956 205.79,46.115 C205.79,46.6450027 205.707501,47.1524976 205.5425,47.6375 C205.377499,48.1225024 205.130002,48.5749979 204.8,48.995 C204.469998,49.4150021 204.052503,49.7924983 203.5475,50.1275 C203.042497,50.4625017 202.450003,50.734999 201.77,50.945 C203.350008,51.2450015 204.537496,51.8074959 205.3325,52.6325 C206.127504,53.4575041 206.525,54.5399933 206.525,55.88 C206.525,56.7900045 206.357502,57.6199962 206.0225,58.37 C205.687498,59.1200038 205.197503,59.7649973 204.5525,60.305 C203.907497,60.8450027 203.115005,61.2624985 202.175,61.5575 C201.234995,61.8525015 200.165006,62 198.965,62 L191.375,62 L191.375,40.505 L198.23,40.505 Z M230.63,51.26 C230.63,52.870008 230.375003,54.3474933 229.865,55.6925 C229.354997,57.0375067 228.635005,58.1949951 227.705,59.165 C226.774995,60.1350049 225.657507,60.8874973 224.3525,61.4225 C223.047493,61.9575027 221.605008,62.225 220.025,62.225 C218.444992,62.225 217.005007,61.9575027 215.705,61.4225 C214.404993,60.8874973 213.290005,60.1350049 212.36,59.165 C211.429995,58.1949951 210.710003,57.0375067 210.2,55.6925 C209.689997,54.3474933 209.435,52.870008 209.435,51.26 C209.435,49.649992 209.689997,48.1725067 210.2,46.8275 C210.710003,45.4824933 211.429995,44.3225049 212.36,43.3475 C213.290005,42.3724951 214.404993,41.6150027 215.705,41.075 C217.005007,40.5349973 218.444992,40.265 220.025,40.265 C221.605008,40.265 223.047493,40.5349973 224.3525,41.075 C225.657507,41.6150027 226.774995,42.3724951 227.705,43.3475 C228.635005,44.3225049 229.354997,45.4824933 229.865,46.8275 C230.375003,48.1725067 230.63,49.649992 230.63,51.26 Z M227.645,51.26 C227.645,49.9399934 227.465002,48.7550052 227.105,47.705 C226.744998,46.6549948 226.235003,45.7675036 225.575,45.0425 C224.914997,44.3174964 224.115005,43.760002 223.175,43.37 C222.234995,42.979998 221.185006,42.785 220.025,42.785 C218.874994,42.785 217.830005,42.979998 216.89,43.37 C215.949995,43.760002 215.147503,44.3174964 214.4825,45.0425 C213.817497,45.7675036 213.305002,46.6549948 212.945,47.705 C212.584998,48.7550052 212.405,49.9399934 212.405,51.26 C212.405,52.5800066 212.584998,53.7624948 212.945,54.8075 C213.305002,55.8525052 213.817497,56.7374964 214.4825,57.4625 C215.147503,58.1875036 215.949995,58.7424981 216.89,59.1275 C217.830005,59.5125019 218.874994,59.705 220.025,59.705 C221.185006,59.705 222.234995,59.5125019 223.175,59.1275 C224.115005,58.7424981 224.914997,58.1875036 225.575,57.4625 C226.235003,56.7374964 226.744998,55.8525052 227.105,54.8075 C227.465002,53.7624948 227.645,52.5800066 227.645,51.26 Z M245.78,43.865 C245.69,44.0150007 245.592501,44.1274996 245.4875,44.2025 C245.382499,44.2775004 245.255001,44.315 245.105,44.315 C244.934999,44.315 244.735001,44.2300009 244.505,44.06 C244.274999,43.8899992 243.987502,43.702501 243.6425,43.4975 C243.297498,43.292499 242.882502,43.1050009 242.3975,42.935 C241.912498,42.7649992 241.325003,42.68 240.635,42.68 C239.984997,42.68 239.412502,42.7674991 238.9175,42.9425 C238.422498,43.1175009 238.007502,43.3549985 237.6725,43.655 C237.337498,43.9550015 237.085001,44.307498 236.915,44.7125 C236.744999,45.117502 236.66,45.5549977 236.66,46.025 C236.66,46.625003 236.807499,47.122498 237.1025,47.5175 C237.397501,47.912502 237.787498,48.2499986 238.2725,48.53 C238.757502,48.8100014 239.307497,49.052499 239.9225,49.2575 C240.537503,49.462501 241.167497,49.6749989 241.8125,49.895 C242.457503,50.1150011 243.087497,50.3624986 243.7025,50.6375 C244.317503,50.9125014 244.867498,51.2599979 245.3525,51.68 C245.837502,52.1000021 246.227499,52.6149969 246.5225,53.225 C246.817501,53.835003 246.965,54.5849956 246.965,55.475 C246.965,56.4150047 246.805002,57.2974959 246.485,58.1225 C246.164998,58.9475041 245.697503,59.664997 245.0825,60.275 C244.467497,60.8850031 243.712504,61.3649982 242.8175,61.715 C241.922496,62.0650018 240.905006,62.24 239.765,62.24 C238.364993,62.24 237.095006,61.9875025 235.955,61.4825 C234.814994,60.9774975 233.840004,60.2950043 233.03,59.435 L233.87,58.055 C233.95,57.9449994 234.047499,57.8525004 234.1625,57.7775 C234.277501,57.7024996 234.404999,57.665 234.545,57.665 C234.675001,57.665 234.822499,57.7174995 234.9875,57.8225 C235.152501,57.9275005 235.339999,58.0599992 235.55,58.22 C235.760001,58.3800008 235.999999,58.554999 236.27,58.745 C236.540001,58.935001 236.847498,59.1099992 237.1925,59.27 C237.537502,59.4300008 237.929998,59.5624995 238.37,59.6675 C238.810002,59.7725005 239.304997,59.825 239.855,59.825 C240.545003,59.825 241.159997,59.7300009 241.7,59.54 C242.240003,59.3499991 242.697498,59.0825017 243.0725,58.7375 C243.447502,58.3924983 243.734999,57.9800024 243.935,57.5 C244.135001,57.0199976 244.235,56.485003 244.235,55.895 C244.235,55.2449967 244.087501,54.7125021 243.7925,54.2975 C243.497499,53.8824979 243.110002,53.5350014 242.63,53.255 C242.149998,52.9749986 241.600003,52.737501 240.98,52.5425 C240.359997,52.347499 239.730003,52.147501 239.09,51.9425 C238.449997,51.737499 237.820003,51.5000013 237.2,51.23 C236.579997,50.9599987 236.030002,50.6100021 235.55,50.18 C235.069998,49.7499978 234.682501,49.2125032 234.3875,48.5675 C234.092499,47.9224968 233.945,47.1250048 233.945,46.175 C233.945,45.4149962 234.092499,44.6800036 234.3875,43.97 C234.682501,43.2599965 235.112497,42.6300028 235.6775,42.08 C236.242503,41.5299973 236.937496,41.0900017 237.7625,40.76 C238.587504,40.4299984 239.534995,40.265 240.605,40.265 C241.805006,40.265 242.897495,40.4549981 243.8825,40.835 C244.867505,41.2150019 245.734996,41.7649964 246.485,42.485 L245.78,43.865 Z M266.15,57.56 C266.310001,57.56 266.449999,57.6249993 266.57,57.755 L267.725,59 C266.844996,60.0200051 265.777506,60.8149971 264.5225,61.385 C263.267494,61.9550028 261.750009,62.24 259.97,62.24 C258.429992,62.24 257.030006,61.9725027 255.77,61.4375 C254.509994,60.9024973 253.435004,60.1525048 252.545,59.1875 C251.654996,58.2224952 250.965002,57.0650068 250.475,55.715 C249.984998,54.3649932 249.74,52.8800081 249.74,51.26 C249.74,49.6399919 249.994997,48.1550067 250.505,46.805 C251.015003,45.4549933 251.732495,44.2950048 252.6575,43.325 C253.582505,42.3549952 254.689994,41.6025027 255.98,41.0675 C257.270006,40.5324973 258.694992,40.265 260.255,40.265 C261.785008,40.265 263.134994,40.5099976 264.305,41 C265.475006,41.4900024 266.504996,42.1549958 267.395,42.995 L266.435,44.33 C266.375,44.4300005 266.2975,44.5124997 266.2025,44.5775 C266.1075,44.6425003 265.980001,44.675 265.82,44.675 C265.639999,44.675 265.420001,44.577501 265.16,44.3825 C264.899999,44.187499 264.560002,43.9700012 264.14,43.73 C263.719998,43.4899988 263.195003,43.272501 262.565,43.0775 C261.934997,42.882499 261.160005,42.785 260.24,42.785 C259.129994,42.785 258.115005,42.9774981 257.195,43.3625 C256.274995,43.7475019 255.482503,44.3049964 254.8175,45.035 C254.152497,45.7650037 253.635002,46.6549948 253.265,47.705 C252.894998,48.7550052 252.71,49.9399934 252.71,51.26 C252.71,52.6000067 252.902498,53.7949948 253.2875,54.845 C253.672502,55.8950052 254.197497,56.7824964 254.8625,57.5075 C255.527503,58.2325036 256.312495,58.7849981 257.2175,59.165 C258.122505,59.5450019 259.099995,59.735 260.15,59.735 C260.790003,59.735 261.367497,59.6975004 261.8825,59.6225 C262.397503,59.5474996 262.872498,59.4300008 263.3075,59.27 C263.742502,59.1099992 264.147498,58.9075012 264.5225,58.6625 C264.897502,58.4174988 265.269998,58.1250017 265.64,57.785 C265.810001,57.6349992 265.979999,57.56 266.15,57.56 Z M290.96,51.26 C290.96,52.870008 290.705003,54.3474933 290.195,55.6925 C289.684997,57.0375067 288.965005,58.1949951 288.035,59.165 C287.104995,60.1350049 285.987507,60.8874973 284.6825,61.4225 C283.377493,61.9575027 281.935008,62.225 280.355,62.225 C278.774992,62.225 277.335006,61.9575027 276.035,61.4225 C274.734993,60.8874973 273.620005,60.1350049 272.69,59.165 C271.759995,58.1949951 271.040003,57.0375067 270.53,55.6925 C270.019997,54.3474933 269.765,52.870008 269.765,51.26 C269.765,49.649992 270.019997,48.1725067 270.53,46.8275 C271.040003,45.4824933 271.759995,44.3225049 272.69,43.3475 C273.620005,42.3724951 274.734993,41.6150027 276.035,41.075 C277.335006,40.5349973 278.774992,40.265 280.355,40.265 C281.935008,40.265 283.377493,40.5349973 284.6825,41.075 C285.987507,41.6150027 287.104995,42.3724951 288.035,43.3475 C288.965005,44.3225049 289.684997,45.4824933 290.195,46.8275 C290.705003,48.1725067 290.96,49.649992 290.96,51.26 Z M287.975,51.26 C287.975,49.9399934 287.795002,48.7550052 287.435,47.705 C287.074998,46.6549948 286.565003,45.7675036 285.905,45.0425 C285.244997,44.3174964 284.445005,43.760002 283.505,43.37 C282.564995,42.979998 281.515006,42.785 280.355,42.785 C279.204994,42.785 278.160005,42.979998 277.22,43.37 C276.279995,43.760002 275.477503,44.3174964 274.8125,45.0425 C274.147497,45.7675036 273.635002,46.6549948 273.275,47.705 C272.914998,48.7550052 272.735,49.9399934 272.735,51.26 C272.735,52.5800066 272.914998,53.7624948 273.275,54.8075 C273.635002,55.8525052 274.147497,56.7374964 274.8125,57.4625 C275.477503,58.1875036 276.279995,58.7424981 277.22,59.1275 C278.160005,59.5125019 279.204994,59.705 280.355,59.705 C281.515006,59.705 282.564995,59.5125019 283.505,59.1275 C284.445005,58.7424981 285.244997,58.1875036 285.905,57.4625 C286.565003,56.7374964 287.074998,55.8525052 287.435,54.8075 C287.795002,53.7624948 287.975,52.5800066 287.975,51.26 Z" id="BOSCO"></path>
            </g>
        </g>
    </g>
</svg>