<?xml version="1.0" encoding="UTF-8"?>
<svg width="568px" height="568px" viewBox="0 0 568 568" version="1.1" xmlns="http://www.w3.org/2000/svg" xmlns:xlink="http://www.w3.org/1999/xlink">
    <!-- Generator: Sketch 50.2 (55047) - http://www.bohemiancoding.com/sketch -->
    <title>flower</title>
    <desc>Created with Sketch.</desc>
    <defs></defs>
    <g id="Page-1" stroke="none" stroke-width="1" fill="none" fill-rule="evenodd" opacity="0.736830357">
        <g id="INDEX" transform="translate(-810.000000, -591.000000)" fill="#564B83">
            <g id="O-NAS" transform="translate(250.000000, 591.000000)">
                <g id="flower" transform="translate(560.000000, 0.000000)">
                    <path d="M482.955088,87.2876677 C482.523203,114.532595 480.342364,141.750892 476.80059,168.800001 C473.705324,192.435595 469.533216,216.014272 462.26532,238.62691 C456.963103,255.122688 450.296818,271.647187 437.659338,283.967064 C417.313198,303.801163 388.731989,315.334631 360.023879,314.992601 C336.163643,314.708011 312.428221,306.382838 293.658176,291.560658 C270.830914,273.534359 255.620399,246.186561 252.576833,217.112424 C249.298786,185.79342 260.097489,153.294804 282.285018,130.102021 C294.840508,116.977981 312.379131,109.759315 329.767874,104.290487 C350.662879,97.7193289 372.358465,93.742901 394.107841,90.750267 C422.509924,86.841723 451.196623,84.4945078 479.71203,84.0449078 L483,84 C482.984855,85.0960633 482.969711,86.1916044 482.955088,87.2876677 Z M476.153023,90.3001448 C438.232226,91.3147474 400.249283,94.6875311 363.255969,102.193398 C343.963171,106.107686 324.711106,110.991146 307.064381,119.878189 C299.582892,123.646265 292.549478,128.308842 286.749053,134.371394 C266.220132,155.830527 255.742079,186.319781 258.658219,215.852918 C261.852187,248.199579 281.181542,278.402154 309.456723,294.865558 C338.423339,311.732087 375.709624,313.313259 406.211078,298.588204 C419.56506,292.141326 432.079294,283.126871 440.521166,271.103072 C447.488779,261.178451 452.120973,249.72801 455.943185,238.093238 C462.926465,216.838278 466.992037,194.722237 470.062236,172.552412 C473.814992,145.448474 475.968675,118.155505 476.699799,90.8463488 L476.713899,90.2855236 C476.52694,90.2902233 476.339981,90.2954451 476.153023,90.3001448 Z" id="Fill-1"></path>
                    <path d="M361.587539,252.000196 C389.864716,252.122907 417.955333,263.612299 438.138311,283.5254 C448.506766,293.75583 454.878028,307.481171 459.919331,321.502584 C469.408811,347.894296 474.08431,375.827988 477.501965,403.764291 C480.586216,428.976412 482.554764,454.491917 482.955058,479.712393 L483,483 C441.764997,482.437097 400.427047,478.762037 360.915504,470.647977 C339.256768,466.200622 317.41722,460.48334 298.728812,449.711937 C286.059972,442.409858 275.760497,431.179464 268.032102,418.648857 C249.465978,388.547622 246.709906,349.255604 261.415752,316.521567 C273.018012,290.696936 295.045688,269.695102 321.627625,259.394178 C334.037789,254.584957 347.368734,252.099409 360.603526,252.001762 C360.931182,252.000196 361.25936,251.999674 361.587539,252.000196 Z M360.949994,258.176991 C337.748087,258.28247 314.839869,266.318204 296.853805,280.695739 C271.401158,301.042245 256.4821,333.787247 258.147031,366.605875 C259.400694,391.32402 269.987586,415.479262 287.081088,433.108374 C297.754206,444.116322 312.473116,450.468045 327.446522,455.492924 C353.065349,464.090517 380.061689,468.486177 406.944108,471.669349 C429.721682,474.366377 452.634604,476.039422 475.514604,476.683263 L476.14849,476.699972 L476.709738,476.714593 C475.904446,445.167458 473.215264,413.034444 468.139471,381.670069 C464.229025,357.504907 459.145394,333.179958 449.097801,311.228291 C444.881126,302.016099 439.549792,293.31616 432.118744,286.303365 C413.291331,268.53431 387.382474,258.289258 361.569248,258.176991 C361.36283,258.176468 361.156412,258.176468 360.949994,258.176991 Z" id="Fill-2"></path>
                    <path d="M206.024091,252 C234.556435,252.124281 262.727292,263.718432 283.040002,284.023209 C308.328372,309.302354 320.057871,347.329164 312.952994,382.872446 C308.871646,403.288449 298.704583,422.526395 284.283786,437.405112 C272.773686,449.280723 257.042241,456.157945 241.000503,461.503589 C206.050732,473.151003 168.91585,477.671589 132.395808,480.607332 C117.381066,481.814632 102.286924,482.720107 87.2894209,482.955092 L84,483 C84.4612607,449.881762 87.1264386,416.960388 92.1820231,384.315775 C95.3852515,363.632933 99.5543588,343.044608 106.43618,323.309538 C111.786387,307.967118 118.669253,293.099889 130.624943,281.812263 C150.596016,262.956037 178.031887,252.119059 205.368505,252 C205.586859,252 205.805736,252 206.024091,252 Z M205.386788,258.176968 C178.67598,258.293416 152.245689,269.113683 133.191913,287.920824 C123.180519,297.802197 117.213905,311.273093 112.424734,324.903257 C103.177058,351.225735 98.6407178,379.076658 95.3319688,407.000165 C92.6359705,429.75244 90.9612233,452.628995 90.3197418,475.51965 L90.3030257,476.153587 L90.2889214,476.714417 C130.065997,475.695627 169.208382,472.210541 207.825254,463.964141 C223.545729,460.607513 239.178445,456.43105 253.868266,449.992988 C263.290417,445.862999 272.377723,440.763828 279.613718,433.345619 C304.489408,407.842977 314.788634,368.985887 305.247903,334.067143 C296.838122,303.286743 273.342035,276.989852 243.367402,265.266199 C231.285819,260.540915 218.286417,258.157647 205.386788,258.176968 Z" id="Fill-3"></path>
                    <path d="M87.2887945,84.0459702 C114.53336,84.475374 141.752338,86.6594824 168.802124,90.2018023 C192.457109,93.2990467 216.05622,97.4828602 238.628692,104.739366 C255.149427,110.050495 271.782957,116.847298 283.967893,129.350679 C303.937737,149.842955 315.502304,178.651141 314.983241,207.667761 C314.341461,243.568946 295.03794,278.559083 264.106144,298.166955 C238.575428,314.351089 206.106807,319.230724 176.745779,311.211531 C158.742528,306.294283 141.894897,296.44934 128.83006,283.547376 C116.181412,271.056533 109.400167,253.672471 104.137991,236.810799 C97.6538756,216.035911 93.7159907,194.508782 90.7473028,172.921579 C86.8464939,144.555333 84.493998,115.935207 84.0459533,87.290006 L84,84 C85.0960908,84.0156717 86.1921815,84.030821 87.2887945,84.0459702 Z M90.3008247,90.850087 C91.2856876,127.66284 94.5123406,164.277608 101.483666,200.223195 C105.391785,220.376441 110.304089,240.485283 119.319292,258.879123 C123.617493,267.648467 129.153821,275.659302 136.547082,282.34118 C160.301285,303.808234 194.420047,313.300564 226.272475,306.831821 C257.683125,300.453451 285.519862,278.779009 299.261989,249.156941 C315.598388,213.942175 310.238562,169.505155 284.435782,139.045174 C270.273809,122.327159 248.404213,113.563561 226.00511,107.442207 C200.051415,100.349731 173.266905,96.5195749 146.433308,93.8569581 C128.157992,92.0437459 109.825235,90.8344154 91.4809891,90.3203846 L90.8475646,90.3031457 L90.2862032,90.2890412 C90.2909029,90.4760565 90.2961249,90.6630718 90.3008247,90.850087 Z" id="Fill-4"></path>
                    <path d="M394.497575,169.000168 C409.665377,169.079134 424.335528,174.763067 437.994563,181.307253 C466.439726,194.93583 492.096149,213.798604 516.565906,233.429591 C533.512387,247.024176 550.113043,261.303301 565.622453,276.205782 L568,278.502052 C540.745191,304.815805 511.501362,329.24119 480.464619,350.54143 C461.452676,363.590056 441.577753,375.86158 419.802373,383.205877 C410.786672,386.246826 401.384027,388.194289 391.820594,387.984586 C359.645159,387.278082 328.054358,371.7831 307.878419,346.627679 C286.392984,319.839087 278.502796,282.871815 287.923366,249.17402 C298.979751,209.625993 333.530624,177.751722 375.456638,170.591502 C381.752657,169.515796 388.161491,168.989186 394.497575,169.000168 Z M393.975674,175.186133 C366.903267,175.313733 339.9073,186.356849 320.663402,205.443969 C301.365732,224.584429 290.154886,251.346873 290.154886,278.502052 C290.154886,308.011547 303.549807,337.205182 326.15232,356.629603 C344.260162,372.191523 367.928618,381.272012 391.958713,381.799667 C409.511443,382.185081 426.435255,374.901445 442.114414,366.708402 C466.746541,353.836532 489.36276,337.345855 511.117053,319.99022 C527.327602,307.057165 543.038391,293.499709 558.152421,279.32622 L558.616333,278.889034 L559.027527,278.502052 C529.956083,251.097427 498.852389,225.288319 465.177676,203.769486 C448.824791,193.319917 431.788163,183.53397 412.903269,178.13452 C406.899831,176.418201 400.750893,175.218556 394.475961,175.186133 C394.309375,175.18561 394.142788,175.186133 393.975674,175.186133 Z" id="Fill-5"></path>
                    <path d="M278.847016,284.000395 C304.713354,284.123718 330.561389,293.804062 350.160507,310.914364 C373.467142,331.261636 387.603816,361.828396 387.994961,392.936934 C388.203084,409.50493 381.935864,425.492675 374.414676,440.654049 C363.696866,462.259851 349.962319,482.19183 335.407308,501.406531 C318.406067,523.850825 300.142492,545.49141 280.788625,565.621549 L278.491952,568 C257.80045,546.557576 238.518747,523.885081 220.646318,500.162759 C206.562459,481.469809 193.252002,462.046407 182.801928,441.092532 C175.296951,426.044995 168.790755,409.97398 169.005153,392.936934 C169.399436,361.581749 183.845157,330.502724 207.835774,310.055845 C227.308344,293.459916 252.696731,284.122137 278.138457,284.000395 C278.374817,283.999868 278.610655,283.999868 278.847016,284.000395 Z M278.158851,290.234541 C254.136859,290.349431 230.229387,299.134364 211.829852,314.816436 C189.34682,333.978436 175.566779,363.074276 175.190275,393.01546 C174.998363,408.295414 180.835741,423.028847 187.696478,437.014961 C197.365829,456.727172 209.70156,475.017477 222.78716,492.666395 C239.74709,515.540212 258.175385,537.368944 277.669396,558.153645 L278.106035,558.617951 L278.492998,559.028501 C303.374673,532.636812 327.055197,504.216614 347.508246,473.910203 C359.38642,456.30977 370.54453,437.983101 377.341994,417.83557 C380.546983,408.334941 382.21615,398.371587 381.648257,388.336557 C379.992163,359.064692 365.391134,330.857937 342.526368,312.636672 C324.601647,298.351736 302.150513,290.418998 279.161815,290.236122 C278.827145,290.234541 278.492998,290.234014 278.158851,290.234541 Z" id="Fill-6"></path>
                    <path d="M173.999111,169.000067 C203.324845,169.138126 232.18152,181.252743 252.607236,202.009078 C272.555988,222.280118 284.090119,250.40427 283.99947,278.855788 C283.89986,310.192411 269.483908,341.251871 245.362632,361.73575 C226.22235,377.989502 201.419619,387.428716 176.134124,387.984087 C157.29636,388.397739 139.138996,380.685823 122.506868,371.95102 C89.982566,354.869441 60.5856822,331.873318 32.9179958,308.256979 C22.5254189,299.38621 12.3246823,290.365877 2.379557,280.805339 L0,278.508027 C26.0054222,253.422204 53.6873385,230.192324 83.1548449,209.49665 C102.761024,195.726902 123.064469,182.77243 145.85604,174.607118 C154.922073,171.358564 164.499329,168.985425 173.999111,169.000067 Z M173.479456,175.186021 C159.226884,175.26028 145.51136,180.730841 132.683888,186.878096 C107.141201,199.119267 83.8710836,215.808634 61.5343428,233.330013 C43.6489283,247.359143 26.4054408,262.150732 9.84762406,277.684907 L9.3833074,278.122092 L8.97274817,278.509073 C35.9790073,303.968804 64.9748185,328.131101 96.260064,348.973723 C113.685905,360.583173 131.759471,371.443237 151.746695,377.869747 C159.581578,380.389311 167.763249,381.98012 175.996569,381.799702 C206.49548,381.129806 236.157462,366.495102 255.171255,342.778879 C275.780907,317.072317 283.012336,281.23311 273.548919,249.301372 C261.772879,209.566202 224.683412,178.323187 180.663979,175.416641 C178.272827,175.258711 175.87904,175.181838 173.479456,175.186021 Z" id="Fill-7"></path>
                    <path d="M279.892415,2.44134771 C299.570068,22.6796881 317.943753,44.1851528 335.197198,66.5580522 C350.389008,86.2573516 364.736439,106.718222 376.008219,128.707635 C384.153406,144.59746 391.222793,161.562126 390.994626,179.40989 C390.613624,209.150042 377.821633,238.784331 356.056875,259.587638 C329.233419,285.22611 289.738829,296.736092 252.229998,288.229184 C215.228446,279.837321 183.269875,251.813674 170.442113,215.532654 C164.23445,197.975475 161.722444,178.858426 166.47439,160.264215 C170.379245,144.984187 177.526133,130.64559 185.451824,116.922191 C200.852292,90.2542483 219.707242,65.7089817 239.552903,42.1029857 C250.97806,28.5129968 262.723517,15.2044111 275.132882,2.44134771 L277.512649,0 C278.305543,0.815582974 279.098979,1.62576474 279.892415,2.44134771 Z M277.111595,9.61955813 C250.934702,37.1392721 226.331133,66.383593 205.081784,97.7603123 C191.764628,117.423424 179.094037,137.831902 172.941112,160.868611 C168.386983,177.919696 170.510401,196.329726 176.38042,213.101569 C187.867903,245.923112 216.289071,272.348001 250.430675,281.21571 C276.657428,288.027718 305.389142,284.506668 329.115812,271.475705 C361.64995,253.606876 383.720376,218.299155 384.565841,180.361044 C384.957139,162.809806 377.741422,145.896452 369.618456,130.297212 C355.137161,102.486913 336.129377,77.228146 316.099447,52.8708415 C304.017971,38.1784653 291.451437,23.8841584 278.366243,10.0948648 L277.913702,9.61955813 L277.512649,9.19826361 C277.378783,9.33869512 277.244918,9.47912662 277.111595,9.61955813 Z" id="Fill-8"></path>
                </g>
            </g>
        </g>
    </g>
</svg>